#!OML:ASF F:\VICON\USERDATA\INSTALL\rory3\rory3.ASF
:FULLY-SPECIFIED
:DEGREES
1
root 0.964115 17.866 -17.3017 6.69405 -3.57433 0.695351
lowerback 6.02632 -0.163844 -2.13827
upperback -0.518959 -0.307504 1.72935
thorax -3.8983 -0.0894458 3.02156
lowerneck -16.631 -4.48619 -10.2796
upperneck 16.3385 -5.03047 7.41971
head 8.26513 -2.29986 3.57119
rclavicle -4.96962e-015 2.66371e-014
rhumerus -29.9979 -5.59346 -82.229
rradius 33.7834
rwrist 4.28822
rhand -13.6585 13.92
rfingers 7.12502
rthumb 12.4584 -15.6887
lclavicle -4.96962e-015 2.66371e-014
lhumerus -30.5039 7.895 86.3099
lradius 28.7366
lwrist -6.56684
lhand -16.3588 26.7249
lfingers 7.12502
lthumb 9.85398 56.4743
rfemur -11.2604 5.90682 18.3215
rtibia 20.4499
rfoot -10.2206 -8.97281
rtoes 5.90899
lfemur -9.60577 -3.13723 -19.6727
ltibia 16.9758
lfoot -10.1583 8.94247
ltoes 0.40957
2
root 0.966169 17.8678 -17.3001 6.68523 -3.61755 0.671788
lowerback 6.11497 -0.150656 -2.11102
upperback -0.511166 -0.289058 1.734
thorax -3.94152 -0.0802312 3.01014
lowerneck -16.7846 -4.49644 -10.2681
upperneck 16.3914 -5.02776 7.38866
head 8.30863 -2.29807 3.55808
rclavicle -9.83984e-015 -9.54166e-015
rhumerus -29.9505 -5.49277 -82.2597
rradius 33.7949
rwrist 4.21326
rhand -13.6817 14.0651
rfingers 7.12502
rthumb 12.436 -15.545
lclavicle -9.83984e-015 -9.54166e-015
lhumerus -30.5016 7.6199 86.4505
lradius 28.8735
lwrist -5.64567
lhand -17.1647 27.0316
lfingers 7.12502
lthumb 9.07641 56.8163
rfemur -11.2323 5.95507 18.3332
rtibia 20.4423
rfoot -10.2359 -8.96596
rtoes 6.0726
lfemur -9.53566 -3.10792 -19.6649
ltibia 16.9022
lfoot -10.1143 8.97185
ltoes 0.668574
3
root 0.967782 17.8688 -17.3006 6.65232 -3.68221 0.713775
lowerback 6.28835 -0.153137 -2.20272
upperback -0.575214 -0.300535 1.76389
thorax -4.10462 -0.0802461 3.09653
lowerneck -16.608 -4.45941 -10.3037
upperneck 16.2096 -4.96499 7.32798
head 8.20994 -2.27904 3.55092
rclavicle 7.65321e-015 -8.74653e-015
rhumerus -30.0348 -5.30272 -82.2577
rradius 33.7916
rwrist 4.24557
rhand -13.843 13.9838
rfingers 7.12502
rthumb 12.2805 -15.6356
lclavicle 7.65321e-015 -8.74653e-015
lhumerus -30.6698 7.64853 86.476
lradius 29.2784
lwrist -6.18912
lhand -16.0453 28.815
lfingers 7.12502
lthumb 10.1565 58.5499
rfemur -11.2117 6.0747 18.2763
rtibia 20.4615
rfoot -10.2724 -9.0263
rtoes 6.20355
lfemur -9.47007 -3.09038 -19.7248
ltibia 16.8443
lfoot -10.0369 8.98405
ltoes 0.683641
4
root 0.970223 17.8694 -17.296 6.72961 -3.66224 0.72046
lowerback 6.30317 -0.157227 -2.21091
upperback -0.703323 -0.306452 1.76613
thorax -4.24578 -0.0791071 3.1054
lowerneck -16.3697 -4.45201 -10.3125
upperneck 16.1285 -4.97517 7.33505
head 8.14218 -2.28805 3.55495
rclavicle 5.36719e-015 1.11319e-014
rhumerus -30.238 -5.26423 -82.2384
rradius 33.815
rwrist 4.21852
rhand -13.9719 13.6567
rfingers 7.12502
rthumb 12.1562 -15.9701
lclavicle 5.36719e-015 1.11319e-014
lhumerus -30.8996 7.50734 86.4841
lradius 28.8912
lwrist -5.0143
lhand -18.4374 24.9387
lfingers 7.12502
lthumb 7.8482 54.773
rfemur -11.3223 6.12333 18.26
rtibia 20.5061
rfoot -10.2929 -9.129
rtoes 5.64558
lfemur -9.5183 -3.0748 -19.7318
ltibia 16.7646
lfoot -9.95033 8.9652
ltoes 0.481801
5
root 0.973453 17.8683 -17.2872 6.75215 -3.66752 0.826109
lowerback 6.28727 -0.173475 -2.29869
upperback -0.779036 -0.33629 1.72477
thorax -4.31334 -0.0902711 3.11538
lowerneck -16.1752 -4.42485 -10.2849
upperneck 16.0644 -4.96131 7.33144
head 8.0843 -2.2837 3.5522
rclavicle 2.48481e-015 -1.35174e-014
rhumerus -30.3702 -5.1697 -82.2948
rradius 33.8524
rwrist 4.14769
rhand -13.9511 13.2098
rfingers 7.12502
rthumb 12.1762 -16.4158
lclavicle 2.48481e-015 -1.35174e-014
lhumerus -31.0409 7.48729 86.4339
lradius 28.8229
lwrist -4.53801
lhand -19.1736 23.9737
lfingers 7.12502
lthumb 7.13756 53.8333
rfemur -11.3516 6.05876 18.1313
rtibia 20.5647
rfoot -10.277 -9.05052
rtoes 5.72941
lfemur -9.48311 -3.1529 -19.8711
ltibia 16.7193
lfoot -9.95237 9.04266
ltoes 0.143744
6
root 0.974343 17.8677 -17.2817 6.67749 -3.72767 0.892823
lowerback 6.34832 -0.167251 -2.38366
upperback -0.72738 -0.336189 1.71396
thorax -4.29376 -0.0892924 3.15233
lowerneck -16.1572 -4.44063 -10.3689
upperneck 15.9739 -4.97752 7.42071
head 8.05715 -2.28774 3.59362
rclavicle -2.35063e-014 3.57812e-015
rhumerus -30.2785 -5.14276 -82.3212
rradius 33.825
rwrist 4.1565
rhand -13.75 13.0654
rfingers 7.12502
rthumb 12.3702 -16.5486
lclavicle -2.35063e-014 3.57812e-015
lhumerus -30.9365 7.42988 86.4576
lradius 28.9126
lwrist -4.70122
lhand -18.8038 24.8276
lfingers 7.12502
lthumb 7.49454 54.6749
rfemur -11.2676 5.98536 18.0553
rtibia 20.6202
rfoot -10.3757 -8.87218
rtoes 6.20491
lfemur -9.34405 -3.14964 -19.9613
ltibia 16.6926
lfoot -9.94639 9.06656
ltoes -0.368713
7
root 0.97565 17.8658 -17.2793 6.63018 -3.80126 0.845719
lowerback 6.42983 -0.164555 -2.37672
upperback -0.699144 -0.331304 1.76635
thorax -4.31056 -0.0864775 3.2032
lowerneck -16.207 -4.43893 -10.472
upperneck 15.9606 -4.9491 7.44808
head 8.06233 -2.27687 3.62283
rclavicle 1.14301e-014 -5.56597e-015
rhumerus -30.1726 -5.07977 -82.2951
rradius 33.7501
rwrist 4.14801
rhand -13.503 13.2475
rfingers 7.12502
rthumb 12.6083 -16.352
lclavicle 1.14301e-014 -5.56597e-015
lhumerus -30.8351 7.53358 86.4593
lradius 28.9398
lwrist -5.14167
lhand -18.2504 25.1399
lfingers 7.12502
lthumb 8.02863 54.9674
rfemur -11.246 5.95004 18.1109
rtibia 20.6593
rfoot -10.5634 -8.86058
rtoes 5.76085
lfemur -9.26189 -3.11718 -19.9255
ltibia 16.6742
lfoot -9.96448 9.1116
ltoes -0.646814
8
root 0.977493 17.8657 -17.276 6.6509 -3.88408 0.838593
lowerback 6.36353 -0.119273 -2.34974
upperback -0.657906 -0.268716 1.74186
thorax -4.23493 -0.058154 3.15512
lowerneck -16.2847 -4.43861 -10.3858
upperneck 15.9586 -4.94605 7.36914
head 8.07068 -2.27608 3.58133
rclavicle -1.65985e-014 -2.46493e-014
rhumerus -30.1207 -5.1369 -82.3307
rradius 33.796
rwrist 4.13774
rhand -13.3504 13.0073
rfingers 7.12502
rthumb 12.7554 -16.5831
lclavicle -1.65985e-014 -2.46493e-014
lhumerus -30.6482 7.47883 86.436
lradius 28.6922
lwrist -4.94132
lhand -18.4411 24.2167
lfingers 7.12502
lthumb 7.84458 54.0512
rfemur -11.3063 6.01276 18.1047
rtibia 20.6909
rfoot -10.5653 -8.91084
rtoes 5.37917
lfemur -9.26932 -3.05893 -19.9372
ltibia 16.6671
lfoot -9.98072 9.17789
ltoes -0.4965
9
root 0.980265 17.8666 -17.268 6.70811 -3.91079 0.789722
lowerback 6.26531 -0.0827809 -2.24597
upperback -0.665891 -0.211565 1.71239
thorax -4.19217 -0.0331445 3.05927
lowerneck -16.2771 -4.41781 -10.3146
upperneck 15.9903 -4.92719 7.31774
head 8.07478 -2.26807 3.55491
rclavicle 5.81445e-015 2.50469e-014
rhumerus -30.2623 -5.15843 -82.381
rradius 34.0166
rwrist 4.0758
rhand -13.2977 12.801
rfingers 7.12502
rthumb 12.8063 -16.7862
lclavicle 5.81445e-015 2.50469e-014
lhumerus -30.5838 7.30208 86.4193
lradius 28.3702
lwrist -4.36621
lhand -19.2752 22.3784
lfingers 7.12502
lthumb 7.03947 52.2413
rfemur -11.3485 6.09787 18.1433
rtibia 20.6971
rfoot -10.504 -8.95766
rtoes 5.12322
lfemur -9.3009 -3.00152 -19.8977
ltibia 16.6674
lfoot -9.99498 9.1365
ltoes 0.052863
10
root 0.982091 17.8654 -17.2593 6.71243 -3.93809 0.82911
lowerback 6.25241 -0.108008 -2.31066
upperback -0.705044 -0.249282 1.72765
thorax -4.22279 -0.049193 3.11561
lowerneck -16.1431 -4.3748 -10.3259
upperneck 15.9074 -4.86262 7.25355
head 8.01616 -2.24648 3.54343
rclavicle 1.08338e-014 8.74653e-015
rhumerus -30.4288 -4.97512 -82.4202
rradius 34.1423
rwrist 3.9857
rhand -13.252 12.8895
rfingers 7.12502
rthumb 12.8503 -16.6949
lclavicle 1.08338e-014 8.74653e-015
lhumerus -30.6229 7.46894 86.385
lradius 28.4001
lwrist -4.42809
lhand -19.1164 22.3945
lfingers 7.12502
lthumb 7.19282 52.2523
rfemur -11.319 6.08323 18.09
rtibia 20.693
rfoot -10.503 -8.88279
rtoes 5.49391
lfemur -9.24924 -3.00717 -19.9505
ltibia 16.6311
lfoot -10.009 9.1499
ltoes 0.497582
11
root 0.984161 17.8645 -17.2516 6.66272 -3.99608 0.859929
lowerback 6.27335 -0.107089 -2.37504
upperback -0.675383 -0.253245 1.73177
thorax -4.2033 -0.0503115 3.15663
lowerneck -16.1931 -4.3827 -10.2624
upperneck 15.8768 -4.86607 7.16983
head 8.01131 -2.25103 3.50324
rclavicle -1.2921e-015 1.19271e-014
rhumerus -30.4877 -4.88452 -82.4441
rradius 34.2302
rwrist 4.00953
rhand -13.3308 12.8547
rfingers 7.12502
rthumb 12.7743 -16.7345
lclavicle -1.2921e-015 1.19271e-014
lhumerus -30.6262 7.47573 86.4225
lradius 28.7547
lwrist -4.6887
lhand -18.6365 23.8232
lfingers 7.12502
lthumb 7.65603 53.6646
rfemur -11.231 6.10084 18.0541
rtibia 20.6661
rfoot -10.5193 -8.8628
rtoes 5.56293
lfemur -9.15021 -2.97884 -20.0037
ltibia 16.606
lfoot -10.038 9.15976
ltoes 0.502906
12
root 0.986438 17.8659 -17.2455 6.66056 -4.02322 0.864449
lowerback 6.21375 -0.0984671 -2.35085
upperback -0.649472 -0.240447 1.69347
thorax -4.14378 -0.0462884 3.10101
lowerneck -16.2034 -4.39258 -10.2043
upperneck 15.8893 -4.89134 7.15844
head 8.01776 -2.26043 3.4867
rclavicle 1.23246e-014 4.37326e-015
rhumerus -30.5056 -4.99808 -82.4801
rradius 34.2285
rwrist 4.02423
rhand -13.4307 13.0741
rfingers 7.12502
rthumb 12.678 -16.5211
lclavicle 1.23246e-014 4.37326e-015
lhumerus -30.6699 7.29713 86.4321
lradius 28.9822
lwrist -4.61997
lhand -18.6092 24.2628
lfingers 7.12502
lthumb 7.68239 54.1033
rfemur -11.1958 6.04183 18.0515
rtibia 20.6266
rfoot -10.5433 -8.82895
rtoes 5.2477
lfemur -9.13617 -3.04029 -20.0249
ltibia 16.6364
lfoot -10.0701 9.26971
ltoes 0.330449
13
root 0.987114 17.8686 -17.2431 6.69905 -3.99449 0.798481
lowerback 6.1357 -0.147912 -2.30571
upperback -0.644374 -0.300411 1.72396
thorax -4.09019 -0.0777002 3.11216
lowerneck -16.1735 -4.3251 -10.1626
upperneck 15.9239 -4.80133 7.09694
head 8.0129 -2.22197 3.47087
rclavicle 5.66536e-015 1.47101e-014
rhumerus -30.4698 -4.97748 -82.5261
rradius 34.1489
rwrist 4.0102
rhand -13.5493 13.1707
rfingers 7.12502
rthumb 12.5636 -16.4316
lclavicle 5.66536e-015 1.47101e-014
lhumerus -30.6376 7.31442 86.3918
lradius 28.9104
lwrist -4.38159
lhand -18.6078 23.8702
lfingers 7.12502
lthumb 7.68369 53.7106
rfemur -11.1552 6.14995 18.1293
rtibia 20.5239
rfoot -10.5332 -8.99857
rtoes 5.0994
lfemur -9.21132 -3.02642 -19.9445
ltibia 16.7512
lfoot -10.1723 9.21025
ltoes 0.281665
